<svg xmlns="http://www.w3.org/2000/svg" width="60" height="57" fill="none" viewBox="0 0 60 57"><path fill="#F8F9FA" d="M29.9998 0C22.8763 0.000292208 15.9854 2.46951 10.5599 6.96581C5.13444 11.4621 1.52858 17.6921 0.387479 24.5412C-0.753623 31.39 0.644548 38.4111 4.33176 44.3477C8.01898 50.2845 13.7546 54.7497 20.5125 56.9442C22.0125 57.1999 22.575 56.3232 22.575 55.5562C22.575 54.8622 22.5375 52.5611 22.5375 50.1138C15 51.4653 13.05 48.324 12.45 46.6804C11.7842 45.0817 10.7288 43.6651 9.37503 42.5529C8.32504 42.005 6.82505 40.6536 9.3375 40.617C10.2968 40.7184 11.217 41.0437 12.0199 41.565C12.8228 42.0863 13.4849 42.7884 13.95 43.6122C14.3603 44.3301 14.912 44.9622 15.5736 45.4721C16.2351 45.982 16.9934 46.3595 17.8051 46.5836C18.6167 46.8075 19.4658 46.8732 20.3036 46.7771C21.1414 46.6809 21.9515 46.4244 22.6874 46.0229C22.8172 44.5373 23.497 43.1484 24.5998 42.1146C17.925 41.3841 10.95 38.8638 10.95 27.6868C10.9078 24.7828 12.0081 21.9729 14.025 19.8337C13.1078 17.3097 13.2152 14.5398 14.325 12.0902C14.325 12.0902 16.8374 11.3231 22.5749 15.0853C27.4837 13.7704 32.6659 13.7704 37.5747 15.0853C43.3122 11.2866 45.8247 12.0902 45.8247 12.0902C46.9347 14.5397 47.0421 17.3097 46.1247 19.8337C48.1479 21.9693 49.2489 24.7814 49.1997 27.6868C49.1997 38.9003 42.1872 41.3841 35.5123 42.1146C36.2284 42.8214 36.7798 43.67 37.129 44.6028C37.4785 45.5355 37.6176 46.5307 37.5373 47.5205C37.5373 51.4287 37.4997 54.57 37.4997 55.5562C37.4997 56.3232 38.0622 57.2364 39.5622 56.9442C46.3083 54.7319 52.0275 50.2561 55.6988 44.3164C59.3705 38.3767 60.7553 31.3593 59.6063 24.5169C58.4573 17.6747 54.8492 11.4527 49.4262 6.96189C44.0031 2.47106 37.1179 0.00362338 29.9998 0Z"/></svg>