<svg xmlns="http://www.w3.org/2000/svg" width="26" height="22" fill="none" viewBox="0 0 26 22"><path fill="#212529" d="M25.25 0.625H7C6.8625 0.625 6.75 0.7375 6.75 0.875V2.625C6.75 2.7625 6.8625 2.875 7 2.875H25.25C25.3875 2.875 25.5 2.7625 25.5 2.625V0.875C25.5 0.7375 25.3875 0.625 25.25 0.625ZM25.25 9.5H7C6.8625 9.5 6.75 9.6125 6.75 9.75V11.5C6.75 11.6375 6.8625 11.75 7 11.75H25.25C25.3875 11.75 25.5 11.6375 25.5 11.5V9.75C25.5 9.6125 25.3875 9.5 25.25 9.5ZM25.25 18.375H7C6.8625 18.375 6.75 18.4875 6.75 18.625V20.375C6.75 20.5125 6.8625 20.625 7 20.625H25.25C25.3875 20.625 25.5 20.5125 25.5 20.375V18.625C25.5 18.4875 25.3875 18.375 25.25 18.375ZM0 1.75C-3.42448e-09 1.97981 0.0452652 2.20738 0.133211 2.4197C0.221157 2.63202 0.350061 2.82493 0.512563 2.98744C0.675066 3.14994 0.867984 3.27884 1.0803 3.36679C1.29262 3.45473 1.52019 3.5 1.75 3.5C1.97981 3.5 2.20738 3.45473 2.4197 3.36679C2.63202 3.27884 2.82493 3.14994 2.98744 2.98744C3.14994 2.82493 3.27884 2.63202 3.36679 2.4197C3.45474 2.20738 3.5 1.97981 3.5 1.75C3.5 1.52019 3.45474 1.29262 3.36679 1.0803C3.27884 0.867984 3.14994 0.675066 2.98744 0.512563C2.82493 0.350061 2.63202 0.221156 2.4197 0.133211C2.20738 0.0452649 1.97981 0 1.75 0C1.52019 0 1.29262 0.0452649 1.0803 0.133211C0.867984 0.221156 0.675066 0.350061 0.512563 0.512563C0.350061 0.675066 0.221157 0.867984 0.133211 1.0803C0.0452652 1.29262 -3.42448e-09 1.52019 0 1.75ZM0 10.625C-3.42448e-09 10.8548 0.0452652 11.0824 0.133211 11.2947C0.221157 11.507 0.350061 11.6999 0.512563 11.8624C0.675066 12.0249 0.867984 12.1538 1.0803 12.2418C1.29262 12.3297 1.52019 12.375 1.75 12.375C1.97981 12.375 2.20738 12.3297 2.4197 12.2418C2.63202 12.1538 2.82493 12.0249 2.98744 11.8624C3.14994 11.6999 3.27884 11.507 3.36679 11.2947C3.45474 11.0824 3.5 10.8548 3.5 10.625C3.5 10.3952 3.45474 10.1676 3.36679 9.9553C3.27884 9.74298 3.14994 9.55007 2.98744 9.38756C2.82493 9.22506 2.63202 9.09616 2.4197 9.00821C2.20738 8.92027 1.97981 8.875 1.75 8.875C1.52019 8.875 1.29262 8.92027 1.0803 9.00821C0.867984 9.09616 0.675066 9.22506 0.512563 9.38756C0.350061 9.55007 0.221157 9.74298 0.133211 9.9553C0.0452652 10.1676 -3.42448e-09 10.3952 0 10.625ZM0 19.5C-3.42448e-09 19.7298 0.0452652 19.9574 0.133211 20.1697C0.221157 20.382 0.350061 20.5749 0.512563 20.7374C0.675066 20.8999 0.867984 21.0288 1.0803 21.1168C1.29262 21.2047 1.52019 21.25 1.75 21.25C1.97981 21.25 2.20738 21.2047 2.4197 21.1168C2.63202 21.0288 2.82493 20.8999 2.98744 20.7374C3.14994 20.5749 3.27884 20.382 3.36679 20.1697C3.45474 19.9574 3.5 19.7298 3.5 19.5C3.5 19.2702 3.45474 19.0426 3.36679 18.8303C3.27884 18.618 3.14994 18.4251 2.98744 18.2626C2.82493 18.1001 2.63202 17.9712 2.4197 17.8832C2.20738 17.7953 1.97981 17.75 1.75 17.75C1.52019 17.75 1.29262 17.7953 1.0803 17.8832C0.867984 17.9712 0.675066 18.1001 0.512563 18.2626C0.350061 18.4251 0.221157 18.618 0.133211 18.8303C0.0452652 19.0426 -3.42448e-09 19.2702 0 19.5Z"/></svg>