<svg width="60" height="60" viewBox="0 0 60 60" fill="none" xmlns="http://www.w3.org/2000/svg">
<rect x="1.5" y="1.5" width="57" height="57" rx="28.5" fill="#212529" stroke="#F8F9FA" stroke-width="3"/>
<g clip-path="url(#clip0_204_85)">
<path d="M22.5714 21.7143H37.4286C37.5857 21.7143 37.7143 21.5857 37.7143 21.4286C37.7143 20 37.4 18.6893 36.7893 17.5679C36.1822 16.4501 35.2642 15.5321 34.1464 14.925C33.025 14.3143 31.7143 14 30.2857 14H29.7143C28.2857 14 26.975 14.3143 25.8536 14.925C24.7358 15.5321 23.8178 16.4501 23.2107 17.5679C22.6 18.6893 22.2857 20 22.2857 21.4286C22.2857 21.5857 22.4143 21.7143 22.5714 21.7143Z" fill="#F8F9FA"/>
<path d="M45.2857 30H40V26.4286C42.7429 26.4286 44.9643 24.2071 44.9643 21.4643C44.9643 21.3071 44.8357 21.1786 44.6786 21.1786H42.5357C42.3786 21.1786 42.25 21.3071 42.25 21.4643C42.25 22.061 42.013 22.6333 41.591 23.0553C41.1691 23.4772 40.5968 23.7143 40 23.7143H20C19.4033 23.7143 18.831 23.4772 18.409 23.0553C17.9871 22.6333 17.75 22.061 17.75 21.4643C17.75 21.3071 17.6214 21.1786 17.4643 21.1786H15.3214C15.1643 21.1786 15.0357 21.3071 15.0357 21.4643C15.0357 24.2071 17.2572 26.4286 20 26.4286V30H14.7143C14.5572 30 14.4286 30.1286 14.4286 30.2857V32.2857C14.4286 32.4428 14.5572 32.5714 14.7143 32.5714H20V36C20 36.2321 20.0072 36.4643 20.025 36.6893C17.575 37.7357 15.8572 40.1678 15.8572 43C15.8572 43.1571 15.9857 43.2857 16.1429 43.2857H18.1429C18.3 43.2857 18.4286 43.1571 18.4286 43C18.4286 41.4214 19.2822 40.0393 20.5572 39.2964C20.7689 39.9051 21.0405 40.4913 21.3679 41.0464C22.2357 42.5286 23.475 43.7678 24.9572 44.6357C25.9893 45.2393 27.1357 45.6643 28.3607 45.8678C28.5179 45.8678 28.6464 45.7393 28.6464 45.5821V29C28.6464 28.8428 28.775 28.7143 28.9322 28.7143H31.075C31.2322 28.7143 31.3607 28.8428 31.3607 29V45.5786C31.3607 45.7357 31.4893 45.8643 31.6464 45.8643C32.8714 45.6607 34.0179 45.2357 35.05 44.6321C37.1024 43.4293 38.6616 41.5373 39.45 39.2928C40.0959 39.6724 40.6315 40.2142 41.0036 40.8644C41.3757 41.5146 41.5714 42.2508 41.5714 43C41.5714 43.1571 41.7 43.2857 41.8572 43.2857H43.8572C44.0143 43.2857 44.1429 43.1571 44.1429 43C44.1429 40.1678 42.425 37.7357 39.975 36.6893C39.9893 36.4607 40 36.2321 40 36V32.5714H45.2857C45.4429 32.5714 45.5715 32.4428 45.5715 32.2857V30.2857C45.5715 30.1286 45.4429 30 45.2857 30Z" fill="#F8F9FA"/>
</g>
<defs>
<clipPath id="clip0_204_85">
<rect width="32" height="32" fill="white" transform="translate(14 14)"/>
</clipPath>
</defs>
</svg>
