<svg xmlns="http://www.w3.org/2000/svg" width="60" height="59" fill="none" viewBox="0 0 60 59"><path fill="#F8F9FA" d="M55.5634 0.000412496H4.43661C3.86191 -0.00738904 3.29124 0.0955414 2.75723 0.303327C2.22323 0.511111 1.73632 0.819677 1.32434 1.21141C0.912346 1.60314 0.583343 2.07036 0.356113 2.58638C0.12888 3.10239 0.00787242 3.65713 0 4.21886V54.7811C0.00787242 55.3431 0.12888 55.8977 0.356113 56.4136C0.583343 56.9299 0.912346 57.3969 1.32434 57.7886C1.73632 58.1804 2.22323 58.4889 2.75723 58.6969C3.29124 58.9046 3.86191 59.0075 4.43661 58.9996H55.5634C56.138 59.0075 56.7088 58.9046 57.2427 58.6969C57.7766 58.4889 58.2637 58.1804 58.6757 57.7886C59.0876 57.3969 59.4166 56.9299 59.6439 56.4136C59.8711 55.8977 59.9922 55.3431 60 54.7811V4.21886C59.9922 3.65713 59.8711 3.10239 59.6439 2.58638C59.4166 2.07036 59.0876 1.60314 58.6757 1.21141C58.2637 0.819677 57.7766 0.511111 57.2427 0.303327C56.7088 0.0955414 56.138 -0.00738904 55.5634 0.000412496ZM18.1992 49.3827H9.14485V22.8331H18.1992V49.3827ZM13.672 19.1162C12.4233 19.1162 11.2257 18.6313 10.3428 17.7683C9.45982 16.9053 8.96377 15.7348 8.96377 14.5142C8.96377 13.2937 9.45982 12.1232 10.3428 11.2602C11.2257 10.3971 12.4233 9.91229 13.672 9.91229C14.3351 9.83878 15.0065 9.903 15.6424 10.1007C16.2784 10.2985 16.8644 10.6253 17.3621 11.0597C17.8598 11.4942 18.2581 12.0265 18.5308 12.6218C18.8034 13.2171 18.9444 13.862 18.9444 14.5142C18.9444 15.1665 18.8034 15.8114 18.5308 16.4067C18.2581 17.002 17.8598 17.5343 17.3621 17.9688C16.8644 18.4032 16.2784 18.73 15.6424 18.9277C15.0065 19.1255 14.3351 19.1897 13.672 19.1162ZM50.8552 49.3827H41.8008V35.1344C41.8008 31.5649 40.5031 29.2346 37.2133 29.2346C36.195 29.2418 35.2036 29.5539 34.3727 30.1289C33.5415 30.7038 32.9107 31.5139 32.5654 32.4499C32.3291 33.1434 32.2268 33.8736 32.2636 34.6034V49.3532H23.2092C23.2092 49.3532 23.2092 25.2226 23.2092 22.8036H32.2636V26.5501C33.0861 25.1551 34.2824 24.0058 35.7236 23.2261C37.1647 22.4463 38.7963 22.0657 40.4427 22.1251C46.4789 22.1251 50.8552 25.9306 50.8552 34.1019V49.3827Z"/></svg>