<svg width="800" height="800" viewBox="0 0 800 800" fill="none" xmlns="http://www.w3.org/2000/svg">
<path d="M800 800H0V0H800V800ZM500.467 299.8V544C500.467 550.6 500.467 551.8 496.233 556.067L452.833 598.2V607.2H663.5V598.2L621.6 557.067C618.567 554.733 616.667 551.133 616.667 547.067C616.667 546.333 616.733 545.633 616.833 544.933V545V242.667C616.733 242.033 616.667 241.333 616.667 240.6C616.667 236.567 618.6 232.967 621.6 230.667L621.633 230.633L664.5 189.5V180.5H515.967L410.1 444.633L289.8 180.5H133.967V189.533L184.033 249.967C188.267 253.8 190.933 259.333 190.933 265.5C190.933 266.233 190.9 266.933 190.833 267.633V267.533V505.067C191.067 506.433 191.2 508 191.2 509.6C191.2 517 188.267 523.7 183.5 528.633L127.167 597.1V606.1H287.167V597.1L230.8 528.633C225.833 523.5 222.767 516.533 222.767 508.8C222.767 507.467 222.867 506.167 223.033 504.9V505.033V299.7L363.533 606.2H379.867L500.467 299.8Z" fill="#F8F9FA"/>
</svg>
