<svg width="45" height="54" viewBox="0 0 45 54" fill="none" xmlns="http://www.w3.org/2000/svg">
<path d="M45 41.1308C45 34.0907 40.8196 28.0093 34.7727 25.1769V14.7175C34.7727 13.765 34.4339 12.8439 33.8075 12.1185L24.0661 0.719159C23.657 0.23972 23.0753 0 22.5 0C21.9247 0 21.343 0.23972 20.9339 0.719159L11.1925 12.1185C10.5703 12.8454 10.2285 13.766 10.2273 14.7175V25.1769C4.1804 28.0093 0 34.0907 0 41.1308H10.0036C9.85653 41.585 9.77983 42.0771 9.77983 42.6322C9.77983 44.0264 10.2656 45.389 11.1477 46.4678C11.8677 47.35 12.8213 48.0182 13.9027 48.3981C15.3793 51.8047 18.7351 54 22.5 54C24.3601 54 26.1626 53.4575 27.7031 52.4355C29.2116 51.4388 30.3814 50.0446 31.0909 48.3981C32.1718 48.0205 33.1255 47.3545 33.8459 46.4741C34.7292 45.3855 35.2115 44.0331 35.2138 42.6386C35.2138 42.1086 35.1435 41.604 35.0156 41.1371L45 41.1308ZM22.5 16.9065C23.3029 16.9227 24.0674 17.2488 24.6294 17.815C25.1914 18.3811 25.5062 19.142 25.5062 19.9346C25.5062 20.7271 25.1914 21.4881 24.6294 22.0542C24.0674 22.6203 23.3029 22.9464 22.5 22.9626C21.6971 22.9464 20.9326 22.6203 20.3706 22.0542C19.8086 21.4881 19.4938 20.7271 19.4938 19.9346C19.4938 19.142 19.8086 18.3811 20.3706 17.815C20.9326 17.2488 21.6971 16.9227 22.5 16.9065ZM29.9212 44.1715C29.5888 44.3607 29.2053 44.4364 28.8281 44.386L27.5817 44.2346L27.4027 45.4584C27.0575 47.8493 24.9482 49.6535 22.5 49.6535C20.0518 49.6535 17.9425 47.8493 17.5973 45.4584L17.4183 44.2283L16.1719 44.386C15.7929 44.4306 15.4096 44.3531 15.0788 44.1652C14.5227 43.8498 14.1776 43.2631 14.1776 42.6259C14.1776 41.9572 14.5547 41.4021 15.1108 41.1245H29.8956C30.4581 41.4084 30.8288 41.9636 30.8288 42.6259C30.8224 43.2694 30.4773 43.8624 29.9212 44.1715Z" fill="black"/>
</svg>
