<svg width="44" height="44" viewBox="0 0 44 44" fill="none" xmlns="http://www.w3.org/2000/svg">
<path d="M39.6 10.2665H33.7335V8.79999C33.7335 7.99347 33.0731 7.33347 32.2665 7.33347H26.4C25.5935 7.33347 24.9335 7.99347 24.9335 8.79999V10.2665H4.40002V13.2H24.9335V14.6665C24.9335 15.473 25.5935 16.1335 26.4 16.1335H32.2665C33.0731 16.1335 33.7335 15.473 33.7335 14.6665V13.2H39.6V10.2665Z" fill="black"/>
<path d="M39.6 20.5335H19.0665V19.0665C19.0665 18.2604 18.4065 17.6 17.6 17.6H11.7335C10.927 17.6 10.2665 18.2604 10.2665 19.0665V20.5335H4.40002V23.4665H10.2665V24.9335C10.2665 25.7396 10.927 26.4 11.7335 26.4H17.6C18.4065 26.4 19.0665 25.7396 19.0665 24.9335V23.4665H39.6V20.5335Z" fill="black"/>
<path d="M39.6 30.8H30.8V29.3335C30.8 28.527 30.1396 27.8665 29.3335 27.8665H23.4665C22.6605 27.8665 22 28.527 22 29.3335V30.8H4.40002V33.7335H22V35.2C22 36.0065 22.6605 36.6665 23.4665 36.6665H29.3335C30.1396 36.6665 30.8 36.0065 30.8 35.2V33.7335H39.6V30.8Z" fill="black"/>
</svg>
