<svg width="60" height="49" viewBox="0 0 60 49" fill="none" xmlns="http://www.w3.org/2000/svg">
<path d="M60 5.87053C57.7449 6.85194 55.3602 7.50072 52.92 7.79668C55.4946 6.25372 57.4239 3.82635 58.35 0.964881C55.9308 2.40967 53.2824 3.42764 50.52 3.97448C48.6735 1.96578 46.215 0.628708 43.5294 0.172907C40.8441 -0.282882 38.0835 0.168414 35.6814 1.45602C33.279 2.74362 31.3707 4.79469 30.2556 7.28758C29.1407 9.78043 28.8819 12.5741 29.52 15.2304C24.6283 14.9822 19.8433 13.7044 15.476 11.48C11.1086 9.25565 7.25655 6.13445 4.17 2.3192C3.08742 4.21576 2.51856 6.36357 2.52 8.54908C2.51616 10.5787 3.01266 12.5778 3.96528 14.3683C4.91787 16.1589 6.29706 17.6854 7.98 18.8118C6.02394 18.7584 4.10967 18.2319 2.4 17.2769V17.4274C2.41466 20.2712 3.40797 23.0225 5.21193 25.2162C7.01592 27.4098 9.51978 28.9111 12.3 29.4658C11.2298 29.7926 10.1186 29.9648 9 29.9774C8.22567 29.9684 7.45326 29.898 6.69 29.7668C7.48173 32.213 9.01386 34.351 11.0732 35.8829C13.1326 37.4148 15.6167 38.2647 18.18 38.314C13.8516 41.7308 8.50764 43.5956 3 43.6109C1.99721 43.6142 0.995208 43.554 0 43.4304C5.62329 47.0729 12.1764 49.0062 18.87 48.9981C23.4891 49.0463 28.0714 48.1705 32.3493 46.4222C36.6273 44.6739 40.515 42.0878 43.7856 38.8151C47.0562 35.5425 49.644 31.649 51.3978 27.3618C53.1516 23.0747 54.036 18.48 54 13.846C54 13.3344 54 12.7926 54 12.2509C56.3541 10.4897 58.3845 8.33064 60 5.87053Z" fill="#F8F9FA"/>
</svg>
