3<svg width="950" height="127" viewBox="0 0 950 127" fill="none" xmlns="http://www.w3.org/2000/svg">
<rect width="950" height="127" fill="black"/>
<path d="M386.064 76.9473C385.807 76.9473 385.666 76.8301 385.643 76.5957L385.766 73.6426C385.789 73.4199 385.883 73.3086 386.047 73.3086H387.26L386.205 53.498L380.598 76.8242C380.551 77.0586 380.41 77.1758 380.176 77.1758L376.449 77.2285C376.238 77.2285 376.104 77.0996 376.045 76.8418L370.227 54.3066L369.717 73.2031L371.334 73.1328C371.486 73.1328 371.58 73.2441 371.615 73.4668L371.914 76.5957C371.891 76.8301 371.75 76.9473 371.492 76.9473L363.863 77.0703C363.664 77.0703 363.559 76.9297 363.547 76.6484L363.758 73.3613C363.781 73.1738 363.875 73.0625 364.039 73.0273L366.359 73.2383L367.396 54.2363L365.217 54.4473C364.982 54.4473 364.859 54.3184 364.848 54.0605L364.689 50.791C364.713 50.5684 364.854 50.4453 365.111 50.4219L372.318 50.0352C372.658 50.0352 372.875 50.1992 372.969 50.5273L378.559 72.8164L384.113 50.6855C384.184 50.3574 384.4 50.1934 384.764 50.1934L391.672 50.2461C391.812 50.2695 391.912 50.3047 391.971 50.3516C392.041 50.3867 392.082 50.4746 392.094 50.6152L392.287 54.0605C392.264 54.2012 392.234 54.3008 392.199 54.3594C392.176 54.418 392.1 54.4473 391.971 54.4473L389.809 54.4297L391.004 73.2559L393.342 73.2031C393.506 73.2383 393.6 73.3496 393.623 73.5371L393.307 76.4727C393.26 76.7539 393.154 76.8945 392.99 76.8945L386.064 76.9473ZM395.188 57.6641C395.188 57.4297 395.322 57.3125 395.592 57.3125L403.572 57.1367C403.783 57.1367 403.889 57.2656 403.889 57.5234L403.977 60.5117C403.953 60.6641 403.918 60.7637 403.871 60.8105C403.824 60.8574 403.73 60.8809 403.59 60.8809L401.287 60.9336L405.857 73.8535L410.006 60.8457L407.598 61.0742C407.41 61.0742 407.311 60.9746 407.299 60.7754L407.457 57.5234C407.469 57.2656 407.598 57.1367 407.844 57.1367L415.525 56.9609C415.713 56.9727 415.807 57.1133 415.807 57.3828L415.631 60.4238C415.607 60.6699 415.479 60.793 415.244 60.793L413.697 60.6523L405.225 84.5586C405.131 84.8398 404.99 84.9805 404.803 84.9805L401.322 84.0312C401.064 83.9961 400.936 83.8789 400.936 83.6797C400.936 83.5977 400.959 83.5156 401.006 83.4336L404.855 76.0684L403.344 76.1211C403.191 76.1211 403.062 76.0156 402.957 75.8047L397.051 61.0215L395.381 61.0566C395.135 61.0566 395.012 60.916 395.012 60.6348L395.188 57.6641ZM427.795 54.2363C427.467 54.2363 427.303 54.0488 427.303 53.6738L427.479 50.7207C427.49 50.5215 427.531 50.3984 427.602 50.3516C427.684 50.293 427.824 50.2578 428.023 50.2461L436.162 49.8945C436.361 49.9062 436.479 49.959 436.514 50.0527C436.549 50.1348 436.572 50.2578 436.584 50.4219L436.76 53.3398C436.736 53.5391 436.689 53.6738 436.619 53.7441C436.549 53.8027 436.42 53.832 436.232 53.832L433.402 53.7969L437.375 71.3223L441.594 50.791C441.629 50.5566 441.77 50.4336 442.016 50.4219L444.67 50.2285C444.916 50.252 445.062 50.3867 445.109 50.6328L449.732 71.3926L453.23 53.7441L450.523 53.6738C450.383 53.6738 450.283 53.6445 450.225 53.5859C450.178 53.5273 450.143 53.4219 450.119 53.2695L450.207 50.4219C450.23 50.0938 450.406 49.918 450.734 49.8945L458.574 50.123C458.832 50.1465 458.961 50.334 458.961 50.6855L458.785 53.4453C458.773 53.6328 458.732 53.7617 458.662 53.832C458.592 53.9023 458.457 53.9434 458.258 53.9551L456.57 53.8848L451.086 76.6309C451.039 76.8535 450.898 76.9766 450.664 77L447.904 77.1406C447.658 77.1172 447.512 76.9824 447.465 76.7363L443.123 58.0156L439.027 76.6309C438.98 76.8535 438.84 76.9766 438.605 77L435.67 77.1406C435.459 77.1289 435.312 76.9941 435.23 76.7363L429.447 54.0781L427.795 54.2363ZM474.236 76.8945C472.736 77.2695 470.832 77.457 468.523 77.457C466.168 77.457 464.457 76.7305 463.391 75.2773C462.277 73.7656 461.721 71.3691 461.721 68.0879C461.721 64.6426 462.195 62.0703 463.145 60.3711C464.223 58.4961 465.945 57.3535 468.312 56.9434C469.133 56.8027 470.047 56.7324 471.055 56.7324C473.223 56.7324 474.799 57.2656 475.783 58.332C476.768 59.3984 477.26 61.0273 477.26 63.2188C477.26 64.6484 477.008 65.75 476.504 66.5234C476.34 66.7695 476.117 67.0508 475.836 67.3672C475.555 67.6719 475.033 67.9473 474.271 68.1934C473.521 68.4277 472.66 68.6094 471.688 68.7383C470.176 68.9258 468.096 69.0195 465.447 69.0195C465.6 71 466.086 72.3477 466.906 73.0625C467.527 73.625 468.605 73.9062 470.141 73.9062C471.582 73.9062 473.018 73.7832 474.447 73.5371L474.5 72.623C474.512 72.4824 474.541 72.3887 474.588 72.3418C474.646 72.2949 474.746 72.2539 474.887 72.2188L477.418 71.6562C477.676 71.6562 477.822 71.7676 477.857 71.9902C477.893 72.1895 477.928 72.582 477.963 73.168C477.998 73.7422 478.033 74.2402 478.068 74.6621C478.104 75.084 478.133 75.4883 478.156 75.875L478.227 76.8594C478.238 77.1523 478.244 77.3984 478.244 77.5977C478.244 77.9492 477.986 78.1543 477.471 78.2129L474.553 78.5645C474.295 78.5645 474.166 78.4355 474.166 78.1777L474.236 76.8945ZM472.602 65.3809C472.906 65.1113 473.088 64.8008 473.146 64.4492C473.217 64.0859 473.252 63.6641 473.252 63.1836C473.252 62.6914 473.205 62.2578 473.111 61.8828C473.029 61.5078 472.883 61.1855 472.672 60.916C472.215 60.3535 471.471 60.0723 470.439 60.0723C468.447 60.0723 467.117 60.5762 466.449 61.584C465.816 62.5215 465.465 64.1387 465.395 66.4355C469.484 66.377 471.887 66.0254 472.602 65.3809ZM487.033 48.9629C487.244 48.9629 487.35 49.0977 487.35 49.3672L487.068 57.8574L488.105 57.4883C489.535 57.0078 490.877 56.7676 492.131 56.7676C493.396 56.7676 494.504 56.9785 495.453 57.4004C496.414 57.8223 497.188 58.4609 497.773 59.3164C498.828 60.8633 499.355 63.3945 499.355 66.9102C499.355 70.4258 498.764 73.0156 497.58 74.6797C496.396 76.332 494.586 77.1582 492.148 77.1582C490.402 77.1582 488.768 76.8828 487.244 76.332C485.814 77 484.777 77.334 484.133 77.334C483.746 77.334 483.553 77.1113 483.553 76.666V52.9355L480.986 52.7949C480.764 52.7832 480.646 52.6719 480.635 52.4609L480.424 49.7363C480.471 49.5254 480.605 49.4082 480.828 49.3848L487.033 48.9629ZM494.75 61.9883C494.434 61.4844 494.006 61.1211 493.467 60.8984C492.928 60.6758 492.096 60.5645 490.971 60.5645C489.857 60.5645 488.539 60.7988 487.016 61.2676L487.227 73.168C488.645 73.4727 489.852 73.625 490.848 73.625C491.844 73.625 492.617 73.5254 493.168 73.3262C493.73 73.1152 494.188 72.7578 494.539 72.2539C495.219 71.2812 495.559 69.5352 495.559 67.0156C495.559 64.543 495.289 62.8672 494.75 61.9883ZM516.74 62.0059C513.576 60.9277 511.344 60.3887 510.043 60.3887C508.637 60.3887 507.688 60.7344 507.195 61.4258C506.996 61.6953 506.896 62.0293 506.896 62.4277C506.896 62.8262 506.943 63.1719 507.037 63.4648C507.131 63.7578 507.301 64.0156 507.547 64.2383C508.039 64.707 508.988 65.0527 510.395 65.2754C511.801 65.498 513.025 65.7441 514.068 66.0137C515.123 66.2715 515.967 66.6113 516.6 67.0332C517.244 67.4434 517.701 67.9648 517.971 68.5977C518.252 69.2305 518.393 70.0449 518.393 71.041C518.393 72.0254 518.246 72.8984 517.953 73.6602C517.66 74.4219 517.244 75.0664 516.705 75.5938C515.615 76.6367 514.104 77.1582 512.17 77.1582C510.846 77.1582 509.322 76.9941 507.6 76.666L507.898 78.125C507.898 78.3125 507.764 78.418 507.494 78.4414L504.471 78.7051C504.025 78.7051 503.779 78.4766 503.732 78.0195L503.24 72.7988C503.24 72.5879 503.381 72.459 503.662 72.4121L506.404 71.9199C506.604 71.9199 506.727 72.0547 506.773 72.3242L506.984 73.4844C508.684 73.7539 510.084 73.8887 511.186 73.8887C512.287 73.8887 513.107 73.6602 513.646 73.2031C514.186 72.7344 514.455 72.1191 514.455 71.3574C514.455 70.6426 514.168 70.1328 513.594 69.8281C513.09 69.5469 512.1 69.2949 510.623 69.0723C509.158 68.8379 507.951 68.5859 507.002 68.3164C506.053 68.0352 505.273 67.666 504.664 67.209C503.504 66.3418 502.924 64.8711 502.924 62.7969C502.924 60.9922 503.469 59.5508 504.559 58.4727C505.719 57.3359 507.342 56.7676 509.428 56.7676C510.658 56.7676 512.076 57.1777 513.682 57.998L513.348 56.6094C513.348 56.3281 513.471 56.1758 513.717 56.1523L517.197 55.8711C517.385 55.8711 517.479 56.0059 517.479 56.2754L517.092 61.6367C517.08 61.8828 516.963 62.0059 516.74 62.0059ZM522.031 77.2461C521.867 77.2461 521.785 77.1055 521.785 76.8242V74.1699C521.785 73.9473 521.879 73.8359 522.066 73.8359H524.176L524.316 61.5488L521.469 61.25C521.258 61.2266 521.152 61.0977 521.152 60.8633L521.539 57.9629C521.586 57.752 521.727 57.6289 521.961 57.5938L527.604 57.0137C527.732 57.0137 527.814 57.0488 527.85 57.1191C527.885 57.1777 527.908 57.2773 527.92 57.418L528.148 60.6172L528.096 73.8359H530.1C530.287 73.8359 530.381 73.9473 530.381 74.1699L530.064 76.4727C530.041 76.6133 530 76.707 529.941 76.7539C529.895 76.7891 529.795 76.8125 529.643 76.8242L522.031 77.2461ZM527.498 53.0586C527.275 53.2344 526.977 53.3516 526.602 53.4102C526.227 53.4688 525.775 53.498 525.248 53.498C524.732 53.498 524.334 53.4688 524.053 53.4102C523.783 53.3516 523.566 53.2461 523.402 53.0938C523.133 52.8125 522.998 52.3145 522.998 51.5996C522.998 50.8848 523.033 50.375 523.104 50.0703C523.186 49.7539 523.332 49.5078 523.543 49.332C523.906 49.0273 524.498 48.875 525.318 48.875C526.15 48.875 526.707 48.8984 526.988 48.9453C527.27 48.9805 527.492 49.0742 527.656 49.2266C527.938 49.4727 528.078 49.9648 528.078 50.7031C528.078 51.4414 528.037 51.9746 527.955 52.3027C527.873 52.6309 527.721 52.8828 527.498 53.0586ZM542.105 76.8945C541.543 76.9297 540.711 76.9473 539.609 76.9473C538.52 76.9473 537.629 76.8359 536.938 76.6133C536.258 76.3906 535.695 76.0332 535.25 75.541C534.371 74.5684 533.932 73.0039 533.932 70.8477C533.932 69.4531 533.949 68.123 533.984 66.8574C534.031 65.5801 534.066 64.4492 534.09 63.4648C534.125 62.4688 534.16 61.4844 534.195 60.5117L531.857 60.3359C531.623 60.3242 531.506 60.166 531.506 59.8613L531.488 57.8398C531.488 57.582 531.617 57.4531 531.875 57.4531L534.336 57.4004C534.359 56.791 534.383 56.2109 534.406 55.6602L534.547 53.0059C534.582 52.3848 534.629 52.0332 534.688 51.9512C534.746 51.8574 534.852 51.7988 535.004 51.7754L538.273 51.3887C538.52 51.3887 538.643 51.5176 538.643 51.7754C538.643 52.1504 538.578 53 538.449 54.3242L538.186 57.2949L545.076 57.1016C545.334 57.1016 545.463 57.2422 545.463 57.5234V60.3887C545.463 60.623 545.334 60.7461 545.076 60.7578L537.957 60.459C537.758 63.2012 537.658 65.5918 537.658 67.6309C537.658 69.6699 537.699 70.9883 537.781 71.5859C537.875 72.1836 538.039 72.6465 538.273 72.9746C538.672 73.5371 539.521 73.8184 540.822 73.8184C541.197 73.8184 541.537 73.8066 541.842 73.7832C541.807 73.373 541.789 73.0684 541.789 72.8691C541.789 72.6582 541.9 72.5352 542.123 72.5L545.059 72.1484C545.305 72.1484 545.428 72.2832 545.428 72.5527L545.498 77.0176C545.498 77.2168 545.41 77.334 545.234 77.3691L542.633 77.791C542.363 77.7676 542.211 77.6562 542.176 77.457L542.105 76.8945ZM561.283 76.8945C559.783 77.2695 557.879 77.457 555.57 77.457C553.215 77.457 551.504 76.7305 550.438 75.2773C549.324 73.7656 548.768 71.3691 548.768 68.0879C548.768 64.6426 549.242 62.0703 550.191 60.3711C551.27 58.4961 552.992 57.3535 555.359 56.9434C556.18 56.8027 557.094 56.7324 558.102 56.7324C560.27 56.7324 561.846 57.2656 562.83 58.332C563.814 59.3984 564.307 61.0273 564.307 63.2188C564.307 64.6484 564.055 65.75 563.551 66.5234C563.387 66.7695 563.164 67.0508 562.883 67.3672C562.602 67.6719 562.08 67.9473 561.318 68.1934C560.568 68.4277 559.707 68.6094 558.734 68.7383C557.223 68.9258 555.143 69.0195 552.494 69.0195C552.646 71 553.133 72.3477 553.953 73.0625C554.574 73.625 555.652 73.9062 557.188 73.9062C558.629 73.9062 560.064 73.7832 561.494 73.5371L561.547 72.623C561.559 72.4824 561.588 72.3887 561.635 72.3418C561.693 72.2949 561.793 72.2539 561.934 72.2188L564.465 71.6562C564.723 71.6562 564.869 71.7676 564.904 71.9902C564.939 72.1895 564.975 72.582 565.01 73.168C565.045 73.7422 565.08 74.2402 565.115 74.6621C565.15 75.084 565.18 75.4883 565.203 75.875L565.273 76.8594C565.285 77.1523 565.291 77.3984 565.291 77.5977C565.291 77.9492 565.033 78.1543 564.518 78.2129L561.6 78.5645C561.342 78.5645 561.213 78.4355 561.213 78.1777L561.283 76.8945ZM559.648 65.3809C559.953 65.1113 560.135 64.8008 560.193 64.4492C560.264 64.0859 560.299 63.6641 560.299 63.1836C560.299 62.6914 560.252 62.2578 560.158 61.8828C560.076 61.5078 559.93 61.1855 559.719 60.916C559.262 60.3535 558.518 60.0723 557.486 60.0723C555.494 60.0723 554.164 60.5762 553.496 61.584C552.863 62.5215 552.512 64.1387 552.441 66.4355C556.531 66.377 558.934 66.0254 559.648 65.3809Z" fill="white"/>
<rect x="432" y="83" width="136" height="5" rx="2.5" fill="#06D6A0"/>
</svg>
